<svg xmlns="http://www.w3.org/2000/svg" width="100%" height="280" viewBox="0 0 1200 280"><defs><linearGradient id="bg-grad" x1="0%" x2="100%" y1="0%" y2="100%"><stop offset="0%" stop-color="#0b0f19"/><stop offset="50%" stop-color="#111827"/><stop offset="100%" stop-color="#1f2937"/></linearGradient><linearGradient id="accent-grad" x1="0%" x2="100%" y1="0%" y2="0%"><stop offset="0%" stop-color="#6366f1"/><stop offset="50%" stop-color="#8b5cf6"/><stop offset="100%" stop-color="#ec4899"/></linearGradient><linearGradient id="card-grad" x1="0%" x2="0%" y1="0%" y2="100%"><stop offset="0%" stop-color="#1e293b" stop-opacity=".8"/><stop offset="100%" stop-color="#0f172a" stop-opacity=".9"/></linearGradient><filter id="glow" width="140%" height="140%" x="-20%" y="-20%"><feGaussianBlur result="blur" stdDeviation="8"/><feComposite in="SourceGraphic" in2="blur" operator="over"/></filter><style>@keyframes floatParticle{0%{transform:translateY(0) scale(1);opacity:.3}50%{transform:translateY(-15px) scale(1.1);opacity:.7}}@keyframes pulseGlow{0%{opacity:.2;transform:scale(.98)}50%{opacity:.5;transform:scale(1.02)}}@keyframes borderShift{0%{stroke-dashoffset:0}}.bg-particle{animation:floatParticle 6s ease-in-out infinite}.bg-particle-delayed{animation:floatParticle 8s ease-in-out infinite 2s}.glow-box{animation:pulseGlow 5s ease-in-out infinite;transform-origin:center}.animated-border{stroke-dasharray:200 100;animation:borderShift 12s linear infinite}.banner-subtitle{font-family:system-ui,-apple-system,&apos;Segoe UI&apos;,Roboto,Helvetica,Arial,sans-serif}.banner-title{font-size:40px;font-weight:800;fill:#fff}.banner-title,.pill-text{font-family:system-ui,-apple-system,&apos;Segoe UI&apos;,Roboto,Helvetica,Arial,sans-serif}.banner-subtitle{font-size:20px;font-weight:500;fill:#94a3b8}.pill-text{font-size:13px;font-weight:600;fill:#e2e8f0}</style></defs><rect width="1200" height="280" fill="url(#bg-grad)" stroke="#334155" stroke-width="2" rx="16"/><g class="glow-box"><circle cx="150" cy="80" r="140" fill="#6366f1" filter="url(#glow)" opacity=".15"/><circle cx="1050" cy="200" r="160" fill="#ec4899" filter="url(#glow)" opacity=".12"/><circle cx="600" cy="250" r="120" fill="#8b5cf6" filter="url(#glow)" opacity=".1"/></g><g stroke="#fff" stroke-width="1" opacity=".08"><line x1="0" x2="1200" y1="70" y2="70"/><line x1="0" x2="1200" y1="140" y2="140"/><line x1="0" x2="1200" y1="210" y2="210"/><line x1="200" x2="200" y1="0" y2="280"/><line x1="400" x2="400" y1="0" y2="280"/><line x1="600" x2="600" y1="0" y2="280"/><line x1="800" x2="800" y1="0" y2="280"/><line x1="1000" x2="1000" y1="0" y2="280"/></g><circle cx="120" cy="210" r="6" fill="#818cf8" class="bg-particle"/><circle cx="980" cy="70" r="8" fill="#f472b6" class="bg-particle-delayed"/><circle cx="1080" cy="120" r="5" fill="#c084fc" class="bg-particle"/><circle cx="240" cy="60" r="7" fill="#38bdf8" class="bg-particle-delayed"/><rect width="1100" height="3" x="50" y="2" fill="url(#accent-grad)" class="animated-border" rx="1.5"/><g transform="translate(60, 42)"><rect width="210" height="30" fill="#1e1b4b" stroke="#6366f1" stroke-width="1.5" rx="15"/><text x="105" y="19" fill="#a5b4fc" class="pill-text" text-anchor="middle">✨ October 2026 Edition</text></g><text x="60" y="118" class="banner-title">Awesome SMB Enterprise Resource Planning (ERP)</text><text x="60" y="156" class="banner-subtitle">Curated Directory of Commercial SaaS &amp; Open-Source ERP Systems for Growing SMBs</text><g><g transform="translate(60, 195) translate(0, 0)"><rect width="145" height="36" fill="url(#card-grad)" stroke="#6366f1" stroke-width="1.5" rx="18"/><text x="72" y="23" class="pill-text" text-anchor="middle">📊 Accounting &amp; Finance</text></g><g transform="translate(60, 195) translate(160, 0)"><rect width="165" height="36" fill="url(#card-grad)" stroke="#8b5cf6" stroke-width="1.5" rx="18"/><text x="82" y="23" class="pill-text" text-anchor="middle">🏭 Manufacturing &amp; MRP</text></g><g transform="translate(60, 195) translate(340, 0)"><rect width="155" height="36" fill="url(#card-grad)" stroke="#ec4899" stroke-width="1.5" rx="18"/><text x="77" y="23" class="pill-text" text-anchor="middle">📦 Inventory &amp; Supply</text></g><g transform="translate(60, 195) translate(510, 0)"><rect width="145" height="36" fill="url(#card-grad)" stroke="#10b981" stroke-width="1.5" rx="18"/><text x="72" y="23" class="pill-text" text-anchor="middle">🌐 Open-Source ERP</text></g><g transform="translate(60, 195) translate(670, 0)"><rect width="135" height="36" fill="url(#card-grad)" stroke="#f59e0b" stroke-width="1.5" rx="18"/><text x="67" y="23" class="pill-text" text-anchor="middle">☁️ Commercial SaaS</text></g></g></svg>